<svg xmlns="http://www.w3.org/2000/svg" viewBox="0 0 24 24"><path d="M3.1672 7.4643a.4677.4677 0 0 0-.4683.4677.4677.4677 0 0 0 .4683.4673.4677.4677 0 0 0 .4677-.4673.4677.4677 0 0 0-.4677-.4677zm3.0099 0c-1.7486 0-2.7517 1.095-2.7517 2.795 0 1.7724.9525 2.7517 2.7517 2.7517.7975 0 1.4738-.2296 2.0059-.6883v-1.041c-.5321.5086-1.134.7637-1.8059.7637-.6154 0-1.1016-.1993-1.459-.5977-.3575-.3976-.5361-.9658-.5361-1.7042 0-.7255.1786-1.2878.5361-1.6887.358-.4007.8426-.6016 1.4543-.6016.676 0 1.2771.2461 1.803.7386V8.126c-.5416-.4414-1.2068-.6617-1.9983-.6617zm7.9443 0c-1.7486 0-2.7518 1.095-2.7518 2.795 0 1.7724.9525 2.7517 2.7518 2.7517.7975 0 1.4738-.2296 2.0059-.6883v-1.041c-.5321.5086-1.134.7637-1.806.7637-.6154 0-1.1015-.1993-1.459-.5977-.3574-.3976-.536-.9658-.536-1.7042 0-.7255.1786-1.2878.536-1.6887.358-.4007.8427-.6016 1.4544-.6016.676 0 1.2771.2461 1.803.7386V8.126c-.5416-.4414-1.2068-.6617-1.9983-.6617zm-3.5273.0606v5.4229h1.0059V7.525zm-7.793.0001V12.947h.9824v-4.4082h.001V12.947h1.0704V7.5244H2.7941z" fill="#512BD4"/></svg>