<svg xmlns="http://www.w3.org/2000/svg" viewBox="0 0 24 24"><path d="M12.504 0c-.155 0-.315.008-.48.021-4.226.333-3.105 4.807-3.17 6.298-.076 1.092-.3 1.953-1.05 3.02-.885 1.051-2.127 2.75-2.716 4.521-.278.832-.41 1.684-.287 2.489a.424.424 0 00-.11.135c-.26.268-.45.6-.663.839-.199.199-.485.267-.797.4-.313.136-.658.269-.864.68-.09.189-.136.394-.132.602 0 .199.027.4.055.536.058.399.116.728.04.97-.249.68-.28 1.145-.106 1.484.174.334.535.47.94.601.81.2 1.91.135 2.774.6.926.466 1.866.67 2.616.47.526-.116.97-.4 1.294-.753.554.214 1.13.342 1.738.342.614 0 1.199-.135 1.754-.352.319.333.734.608 1.247.728.79.193 1.729-.012 2.644-.468.87-.45 1.982-.514 2.788-.706.395-.13.76-.27.93-.604.175-.343.143-.81-.106-1.49-.075-.243-.016-.571.042-.97.028-.136.055-.337.055-.54.004-.208-.042-.414-.132-.602-.207-.411-.551-.544-.864-.68-.312-.133-.598-.2-.797-.4-.212-.239-.403-.57-.663-.839a.443.443 0 00-.109-.135c.124-.804-.008-1.656-.287-2.489-.589-1.772-1.831-3.47-2.716-4.521-.75-1.067-.974-1.928-1.05-3.02-.063-1.491 1.057-5.965-3.169-6.298-.165-.013-.325-.021-.48-.021zm0 .417c.133 0 .268.008.405.018 3.325.262 2.57 4.274 2.636 6.053.077 1.197.329 2.141 1.128 3.28.898 1.071 2.095 2.736 2.666 4.43.258.773.379 1.554.244 2.287l-.049.147.032.13c.023.09.046.15.068.2-.23.26-.437.57-.673.826-.196.198-.492.276-.811.41-.319.135-.67.268-.888.693-.09.19-.137.4-.133.612 0 .199.027.4.055.536.058.399.116.728.04.97-.249.68-.28 1.145-.106 1.484.174.334.535.47.94.601.81.2 1.91.135 2.774.6.926.466 1.866.67 2.616.47.526-.116.97-.4 1.294-.753.554.214 1.13.342 1.738.342.614 0 1.199-.135 1.754-.352.319.333.734.608 1.247.728.79.193 1.729-.012 2.644-.468.87-.45 1.982-.514 2.788-.706.395-.13.76-.27.93-.604.175-.343.143-.81-.106-1.49-.075-.243-.016-.571.042-.97.028-.136.055-.337.055-.54.004-.208-.042-.414-.132-.602-.207-.411-.551-.544-.864-.68-.312-.133-.598-.2-.797-.4-.212-.239-.403-.57-.663-.839a.443.443 0 00-.109-.135z" fill="#FCC624"/></svg>