<svg xmlns="http://www.w3.org/2000/svg" viewBox="0 0 24 24"><circle cx="12" cy="11.998" r="2.345" fill="#61DAFB"/><path d="M12 7.863c4.845-.008 8.775 1.325 8.775 3.135 0 1.814-3.943 3.152-8.802 3.152-4.855 0-8.775-1.338-8.775-3.152 0-1.81 3.942-3.135 8.802-3.135zm0-1.5C6.345 6.363 1.698 7.95 1.698 11.998c0 4.05 4.647 5.637 10.302 5.637 5.655 0 10.302-1.587 10.302-5.637C22.302 7.95 17.655 6.363 12 6.363z" fill="#61DAFB"/><path d="M7.758 9.928C10.18 5.74 13.27 3.12 14.87 4.03c1.6.925.947 5.19-1.475 9.378-2.424 4.186-5.514 6.806-7.113 5.88-1.6-.924-.947-5.176 1.476-9.36zm.75 1.3C6.513 14.41 6.27 17.96 7.13 18.458c.872.502 3.742-1.722 5.737-5.19 1.993-3.465 2.415-7.04 1.543-7.542-.87-.502-3.908 1.72-5.902 5.502z" fill="#61DAFB"/><path d="M7.758 14.07C5.335 9.882 4.97 5.617 6.572 4.692c1.6-.924 4.69 1.696 7.113 5.882 2.422 4.186 2.897 8.44 1.297 9.365-1.6.924-4.8-1.684-7.224-5.87zm.75-1.3c1.994 3.464 4.787 5.716 5.658 5.212.87-.503.55-4.078-1.444-7.543C10.728 7.177 7.935 4.925 7.065 5.43c-.87.502-.55 3.875 1.443 7.34z" fill="#61DAFB"/></svg>